<?xml version="1.0" encoding="UTF-8" standalone="no"?>
<!DOCTYPE svg PUBLIC "-//W3C//DTD SVG 1.1//EN"
 "http://www.w3.org/Graphics/SVG/1.1/DTD/svg11.dtd">
<!-- Generated by graphviz version 2.40.1 (20161225.0304)
 -->
<!-- Title: %3 Pages: 1 -->
<svg width="1424pt" height="548pt"
 viewBox="0.00 0.00 1423.64 548.00" xmlns="http://www.w3.org/2000/svg" xmlns:xlink="http://www.w3.org/1999/xlink">
<g id="graph0" class="graph" transform="scale(1 1) rotate(0) translate(4 544)">
<title>%3</title>
<polygon fill="#ffffff" stroke="transparent" points="-4,4 -4,-544 1419.6366,-544 1419.6366,4 -4,4"/>
<!-- [root] azurerm_network_interface.main -->
<g id="node1" class="node">
<title>[root] azurerm_network_interface.main</title>
<polygon fill="none" stroke="#000000" points="562.778,-180 307.778,-180 307.778,-144 562.778,-144 562.778,-180"/>
<text text-anchor="middle" x="435.278" y="-158.3" font-family="Times,serif" font-size="14.00" fill="#000000">azurerm_network_interface.main</text>
</g>
<!-- [root] azurerm_network_security_group.main -->
<g id="node2" class="node">
<title>[root] azurerm_network_security_group.main</title>
<polygon fill="none" stroke="#000000" points="728.778,-108 429.778,-108 429.778,-72 728.778,-72 728.778,-108"/>
<text text-anchor="middle" x="579.278" y="-86.3" font-family="Times,serif" font-size="14.00" fill="#000000">azurerm_network_security_group.main</text>
</g>
<!-- [root] azurerm_network_interface.main&#45;&gt;[root] azurerm_network_security_group.main -->
<g id="edge1" class="edge">
<title>[root] azurerm_network_interface.main&#45;&gt;[root] azurerm_network_security_group.main</title>
<path fill="none" stroke="#000000" d="M471.6153,-143.8314C490.6176,-134.3302 514.0538,-122.6121 534.2032,-112.5374"/>
<polygon fill="#000000" stroke="#000000" points="535.823,-115.6407 543.202,-108.038 532.6924,-109.3797 535.823,-115.6407"/>
</g>
<!-- [root] azurerm_public_ip.main -->
<g id="node3" class="node">
<title>[root] azurerm_public_ip.main</title>
<polygon fill="none" stroke="#000000" points="935.778,-108 746.778,-108 746.778,-72 935.778,-72 935.778,-108"/>
<text text-anchor="middle" x="841.278" y="-86.3" font-family="Times,serif" font-size="14.00" fill="#000000">azurerm_public_ip.main</text>
</g>
<!-- [root] azurerm_network_interface.main&#45;&gt;[root] azurerm_public_ip.main -->
<g id="edge2" class="edge">
<title>[root] azurerm_network_interface.main&#45;&gt;[root] azurerm_public_ip.main</title>
<path fill="none" stroke="#000000" d="M536.9431,-143.9707C597.7959,-133.1791 674.9882,-119.4898 736.403,-108.5985"/>
<polygon fill="#000000" stroke="#000000" points="737.2725,-111.999 746.5076,-106.8066 736.0501,-105.1066 737.2725,-111.999"/>
</g>
<!-- [root] azurerm_subnet.internal -->
<g id="node4" class="node">
<title>[root] azurerm_subnet.internal</title>
<polygon fill="none" stroke="#000000" points="411.278,-108 217.278,-108 217.278,-72 411.278,-72 411.278,-108"/>
<text text-anchor="middle" x="314.278" y="-86.3" font-family="Times,serif" font-size="14.00" fill="#000000">azurerm_subnet.internal</text>
</g>
<!-- [root] azurerm_network_interface.main&#45;&gt;[root] azurerm_subnet.internal -->
<g id="edge3" class="edge">
<title>[root] azurerm_network_interface.main&#45;&gt;[root] azurerm_subnet.internal</title>
<path fill="none" stroke="#000000" d="M404.7446,-143.8314C389.2679,-134.6221 370.2911,-123.3301 353.7216,-113.4706"/>
<polygon fill="#000000" stroke="#000000" points="355.1851,-110.2687 344.8016,-108.1628 351.6055,-116.2843 355.1851,-110.2687"/>
</g>
<!-- [root] provider.azurerm -->
<g id="node9" class="node">
<title>[root] provider.azurerm</title>
<polygon fill="none" stroke="#000000" points="318.278,-36 189.4137,-18 318.278,0 447.1423,-18 318.278,-36"/>
<text text-anchor="middle" x="318.278" y="-14.3" font-family="Times,serif" font-size="14.00" fill="#000000">provider.azurerm</text>
</g>
<!-- [root] azurerm_network_security_group.main&#45;&gt;[root] provider.azurerm -->
<g id="edge4" class="edge">
<title>[root] azurerm_network_security_group.main&#45;&gt;[root] provider.azurerm</title>
<path fill="none" stroke="#000000" d="M513.7535,-71.9243C469.8109,-59.8022 412.6722,-44.0398 371.5335,-32.6912"/>
<polygon fill="#000000" stroke="#000000" points="372.2709,-29.2639 361.7002,-29.9785 370.4093,-36.0119 372.2709,-29.2639"/>
</g>
<!-- [root] var.location -->
<g id="node12" class="node">
<title>[root] var.location</title>
<ellipse fill="none" stroke="#000000" cx="837.278" cy="-18" rx="93.6835" ry="18"/>
<text text-anchor="middle" x="837.278" y="-14.3" font-family="Times,serif" font-size="14.00" fill="#000000">[root] var.location</text>
</g>
<!-- [root] azurerm_network_security_group.main&#45;&gt;[root] var.location -->
<g id="edge5" class="edge">
<title>[root] azurerm_network_security_group.main&#45;&gt;[root] var.location</title>
<path fill="none" stroke="#000000" d="M644.0492,-71.9243C683.8172,-60.8263 734.5187,-46.677 774.0071,-35.657"/>
<polygon fill="#000000" stroke="#000000" points="775.1003,-38.9857 783.7915,-32.9265 773.2187,-32.2433 775.1003,-38.9857"/>
</g>
<!-- [root] var.prefix -->
<g id="node13" class="node">
<title>[root] var.prefix</title>
<ellipse fill="none" stroke="#000000" cx="1032.278" cy="-18" rx="83.6854" ry="18"/>
<text text-anchor="middle" x="1032.278" y="-14.3" font-family="Times,serif" font-size="14.00" fill="#000000">[root] var.prefix</text>
</g>
<!-- [root] azurerm_network_security_group.main&#45;&gt;[root] var.prefix -->
<g id="edge6" class="edge">
<title>[root] azurerm_network_security_group.main&#45;&gt;[root] var.prefix</title>
<path fill="none" stroke="#000000" d="M709.4154,-71.9679C778.1817,-62.0775 863.9349,-49.1714 940.278,-36 946.9588,-34.8474 953.9014,-33.5932 960.8437,-32.3012"/>
<polygon fill="#000000" stroke="#000000" points="961.8062,-35.6814 970.9842,-30.3884 960.5087,-28.8027 961.8062,-35.6814"/>
</g>
<!-- [root] var.resource_group -->
<g id="node14" class="node">
<title>[root] var.resource_group</title>
<ellipse fill="none" stroke="#000000" cx="595.278" cy="-18" rx="129.9769" ry="18"/>
<text text-anchor="middle" x="595.278" y="-14.3" font-family="Times,serif" font-size="14.00" fill="#000000">[root] var.resource_group</text>
</g>
<!-- [root] azurerm_network_security_group.main&#45;&gt;[root] var.resource_group -->
<g id="edge7" class="edge">
<title>[root] azurerm_network_security_group.main&#45;&gt;[root] var.resource_group</title>
<path fill="none" stroke="#000000" d="M583.3154,-71.8314C585.0266,-64.131 587.0614,-54.9743 588.9632,-46.4166"/>
<polygon fill="#000000" stroke="#000000" points="592.4334,-46.9344 591.1861,-36.4133 585.6001,-45.4159 592.4334,-46.9344"/>
</g>
<!-- [root] azurerm_public_ip.main&#45;&gt;[root] provider.azurerm -->
<g id="edge8" class="edge">
<title>[root] azurerm_public_ip.main&#45;&gt;[root] provider.azurerm</title>
<path fill="none" stroke="#000000" d="M746.7313,-73.3032C743.8829,-72.856 741.0601,-72.4205 738.278,-72 613.3461,-53.1195 581.5893,-52.171 456.278,-36 436.3937,-33.434 414.9007,-30.6403 394.931,-28.036"/>
<polygon fill="#000000" stroke="#000000" points="395.3238,-24.5577 384.955,-26.7343 394.4181,-31.4989 395.3238,-24.5577"/>
</g>
<!-- [root] azurerm_public_ip.main&#45;&gt;[root] var.location -->
<g id="edge9" class="edge">
<title>[root] azurerm_public_ip.main&#45;&gt;[root] var.location</title>
<path fill="none" stroke="#000000" d="M840.2686,-71.8314C839.8408,-64.131 839.3321,-54.9743 838.8567,-46.4166"/>
<polygon fill="#000000" stroke="#000000" points="842.3503,-46.2037 838.3009,-36.4133 835.3611,-46.592 842.3503,-46.2037"/>
</g>
<!-- [root] azurerm_public_ip.main&#45;&gt;[root] var.prefix -->
<g id="edge10" class="edge">
<title>[root] azurerm_public_ip.main&#45;&gt;[root] var.prefix</title>
<path fill="none" stroke="#000000" d="M889.4753,-71.8314C917.4746,-61.2767 952.7314,-47.9862 981.2068,-37.2519"/>
<polygon fill="#000000" stroke="#000000" points="982.4608,-40.5197 990.5835,-33.7173 979.9917,-33.9697 982.4608,-40.5197"/>
</g>
<!-- [root] azurerm_public_ip.main&#45;&gt;[root] var.resource_group -->
<g id="edge11" class="edge">
<title>[root] azurerm_public_ip.main&#45;&gt;[root] var.resource_group</title>
<path fill="none" stroke="#000000" d="M779.5193,-71.9243C743.3295,-61.3322 697.6435,-47.9606 660.8196,-37.1829"/>
<polygon fill="#000000" stroke="#000000" points="661.7536,-33.8095 651.1731,-34.3595 659.7873,-40.5277 661.7536,-33.8095"/>
</g>
<!-- [root] azurerm_subnet.internal&#45;&gt;[root] provider.azurerm -->
<g id="edge12" class="edge">
<title>[root] azurerm_subnet.internal&#45;&gt;[root] provider.azurerm</title>
<path fill="none" stroke="#000000" d="M315.2873,-71.8314C315.7217,-64.0125 316.2395,-54.6923 316.7212,-46.0221"/>
<polygon fill="#000000" stroke="#000000" points="320.2226,-46.0922 317.2828,-35.9134 313.2334,-45.7038 320.2226,-46.0922"/>
</g>
<!-- [root] azurerm_subnet.internal&#45;&gt;[root] var.resource_group -->
<g id="edge13" class="edge">
<title>[root] azurerm_subnet.internal&#45;&gt;[root] var.resource_group</title>
<path fill="none" stroke="#000000" d="M384.8234,-71.9243C427.2053,-61.0649 480.9888,-47.2841 523.5757,-36.3721"/>
<polygon fill="#000000" stroke="#000000" points="524.4948,-39.7498 533.3131,-33.8771 522.7573,-32.9688 524.4948,-39.7498"/>
</g>
<!-- [root] var.vnet -->
<g id="node15" class="node">
<title>[root] var.vnet</title>
<ellipse fill="none" stroke="#000000" cx="94.278" cy="-18" rx="77.1866" ry="18"/>
<text text-anchor="middle" x="94.278" y="-14.3" font-family="Times,serif" font-size="14.00" fill="#000000">[root] var.vnet</text>
</g>
<!-- [root] azurerm_subnet.internal&#45;&gt;[root] var.vnet -->
<g id="edge14" class="edge">
<title>[root] azurerm_subnet.internal&#45;&gt;[root] var.vnet</title>
<path fill="none" stroke="#000000" d="M259.0466,-71.9243C225.3354,-60.8915 182.4102,-46.8433 148.8248,-35.8517"/>
<polygon fill="#000000" stroke="#000000" points="149.7624,-32.4759 139.1697,-32.6919 147.5851,-39.1287 149.7624,-32.4759"/>
</g>
<!-- [root] azurerm_virtual_machine.veos&#45;1 -->
<g id="node5" class="node">
<title>[root] azurerm_virtual_machine.veos&#45;1</title>
<polygon fill="none" stroke="#000000" points="732.278,-324 482.278,-324 482.278,-288 732.278,-288 732.278,-324"/>
<text text-anchor="middle" x="607.278" y="-302.3" font-family="Times,serif" font-size="14.00" fill="#000000">azurerm_virtual_machine.veos&#45;1</text>
</g>
<!-- [root] azurerm_virtual_machine.veos&#45;1&#45;&gt;[root] azurerm_network_interface.main -->
<g id="edge15" class="edge">
<title>[root] azurerm_virtual_machine.veos&#45;1&#45;&gt;[root] azurerm_network_interface.main</title>
<path fill="none" stroke="#000000" d="M535.5451,-287.9668C501.4642,-278.0012 465.698,-265.0265 454.278,-252 439.5331,-235.181 435.2352,-209.8255 434.3665,-190.309"/>
<polygon fill="#000000" stroke="#000000" points="437.8635,-190.0969 434.1921,-180.1585 430.8645,-190.2172 437.8635,-190.0969"/>
</g>
<!-- [root] data.template_file.init -->
<g id="node8" class="node">
<title>[root] data.template_file.init</title>
<polygon fill="none" stroke="#000000" points="1164.778,-252 989.778,-252 989.778,-216 1164.778,-216 1164.778,-252"/>
<text text-anchor="middle" x="1077.278" y="-230.3" font-family="Times,serif" font-size="14.00" fill="#000000">data.template_file.init</text>
</g>
<!-- [root] azurerm_virtual_machine.veos&#45;1&#45;&gt;[root] data.template_file.init -->
<g id="edge16" class="edge">
<title>[root] azurerm_virtual_machine.veos&#45;1&#45;&gt;[root] data.template_file.init</title>
<path fill="none" stroke="#000000" d="M732.6538,-289.114C802.5035,-279.4018 891.2836,-266.5573 979.6065,-252.0785"/>
<polygon fill="#000000" stroke="#000000" points="980.2381,-255.5217 989.5365,-250.4433 979.1007,-248.6147 980.2381,-255.5217"/>
</g>
<!-- [root] var.admin_password -->
<g id="node16" class="node">
<title>[root] var.admin_password</title>
<ellipse fill="none" stroke="#000000" cx="598.278" cy="-234" rx="134.5761" ry="18"/>
<text text-anchor="middle" x="598.278" y="-230.3" font-family="Times,serif" font-size="14.00" fill="#000000">[root] var.admin_password</text>
</g>
<!-- [root] azurerm_virtual_machine.veos&#45;1&#45;&gt;[root] var.admin_password -->
<g id="edge17" class="edge">
<title>[root] azurerm_virtual_machine.veos&#45;1&#45;&gt;[root] var.admin_password</title>
<path fill="none" stroke="#000000" d="M605.0069,-287.8314C604.0443,-280.131 602.8998,-270.9743 601.83,-262.4166"/>
<polygon fill="#000000" stroke="#000000" points="605.293,-261.9019 600.5796,-252.4133 598.3471,-262.7702 605.293,-261.9019"/>
</g>
<!-- [root] var.veos_image -->
<g id="node17" class="node">
<title>[root] var.veos_image</title>
<ellipse fill="none" stroke="#000000" cx="861.278" cy="-234" rx="110.4804" ry="18"/>
<text text-anchor="middle" x="861.278" y="-230.3" font-family="Times,serif" font-size="14.00" fill="#000000">[root] var.veos_image</text>
</g>
<!-- [root] azurerm_virtual_machine.veos&#45;1&#45;&gt;[root] var.veos_image -->
<g id="edge18" class="edge">
<title>[root] azurerm_virtual_machine.veos&#45;1&#45;&gt;[root] var.veos_image</title>
<path fill="none" stroke="#000000" d="M671.045,-287.9243C709.2211,-277.1027 757.6317,-263.3801 796.0625,-252.4863"/>
<polygon fill="#000000" stroke="#000000" points="797.4454,-255.7323 806.1118,-249.6377 795.5363,-248.9976 797.4454,-255.7323"/>
</g>
<!-- [root] var.vm_size -->
<g id="node18" class="node">
<title>[root] var.vm_size</title>
<ellipse fill="none" stroke="#000000" cx="313.278" cy="-234" rx="93.6835" ry="18"/>
<text text-anchor="middle" x="313.278" y="-230.3" font-family="Times,serif" font-size="14.00" fill="#000000">[root] var.vm_size</text>
</g>
<!-- [root] azurerm_virtual_machine.veos&#45;1&#45;&gt;[root] var.vm_size -->
<g id="edge19" class="edge">
<title>[root] azurerm_virtual_machine.veos&#45;1&#45;&gt;[root] var.vm_size</title>
<path fill="none" stroke="#000000" d="M533.4688,-287.9243C486.721,-276.4759 426.7149,-261.7805 381.154,-250.6227"/>
<polygon fill="#000000" stroke="#000000" points="381.9146,-247.2056 371.3691,-248.2264 380.2495,-254.0047 381.9146,-247.2056"/>
</g>
<!-- [root] cvp_device.Device&#45;A -->
<g id="node6" class="node">
<title>[root] cvp_device.Device&#45;A</title>
<polygon fill="none" stroke="#000000" points="518.278,-396 354.278,-396 354.278,-360 518.278,-360 518.278,-396"/>
<text text-anchor="middle" x="436.278" y="-374.3" font-family="Times,serif" font-size="14.00" fill="#000000">cvp_device.Device&#45;A</text>
</g>
<!-- [root] cvp_device.Device&#45;A&#45;&gt;[root] azurerm_virtual_machine.veos&#45;1 -->
<g id="edge20" class="edge">
<title>[root] cvp_device.Device&#45;A&#45;&gt;[root] azurerm_virtual_machine.veos&#45;1</title>
<path fill="none" stroke="#000000" d="M479.4285,-359.8314C502.4004,-350.159 530.8289,-338.1891 555.0412,-327.9944"/>
<polygon fill="#000000" stroke="#000000" points="556.5796,-331.1443 564.4377,-324.038 553.8632,-324.6929 556.5796,-331.1443"/>
</g>
<!-- [root] provider.cvp -->
<g id="node10" class="node">
<title>[root] provider.cvp</title>
<polygon fill="none" stroke="#000000" points="367.278,-324 269.9166,-306 367.278,-288 464.6394,-306 367.278,-324"/>
<text text-anchor="middle" x="367.278" y="-302.3" font-family="Times,serif" font-size="14.00" fill="#000000">provider.cvp</text>
</g>
<!-- [root] cvp_device.Device&#45;A&#45;&gt;[root] provider.cvp -->
<g id="edge21" class="edge">
<title>[root] cvp_device.Device&#45;A&#45;&gt;[root] provider.cvp</title>
<path fill="none" stroke="#000000" d="M418.8664,-359.8314C409.8312,-350.4034 398.7042,-338.7926 389.0998,-328.7706"/>
<polygon fill="#000000" stroke="#000000" points="391.558,-326.2772 382.112,-321.479 386.5041,-331.1206 391.558,-326.2772"/>
</g>
<!-- [root] data.azurerm_public_ip.main -->
<g id="node7" class="node">
<title>[root] data.azurerm_public_ip.main</title>
<polygon fill="none" stroke="#000000" points="1094.778,-180 869.778,-180 869.778,-144 1094.778,-144 1094.778,-180"/>
<text text-anchor="middle" x="982.278" y="-158.3" font-family="Times,serif" font-size="14.00" fill="#000000">data.azurerm_public_ip.main</text>
</g>
<!-- [root] data.azurerm_public_ip.main&#45;&gt;[root] azurerm_public_ip.main -->
<g id="edge22" class="edge">
<title>[root] data.azurerm_public_ip.main&#45;&gt;[root] azurerm_public_ip.main</title>
<path fill="none" stroke="#000000" d="M946.6977,-143.8314C928.2455,-134.4089 905.5235,-122.8062 885.905,-112.7883"/>
<polygon fill="#000000" stroke="#000000" points="887.3446,-109.5935 876.8468,-108.1628 884.1612,-115.8278 887.3446,-109.5935"/>
</g>
<!-- [root] data.template_file.init&#45;&gt;[root] data.azurerm_public_ip.main -->
<g id="edge23" class="edge">
<title>[root] data.template_file.init&#45;&gt;[root] data.azurerm_public_ip.main</title>
<path fill="none" stroke="#000000" d="M1053.3055,-215.8314C1041.4919,-206.8779 1027.0808,-195.9558 1014.3345,-186.2955"/>
<polygon fill="#000000" stroke="#000000" points="1016.3266,-183.4137 1006.2428,-180.1628 1012.0984,-188.9925 1016.3266,-183.4137"/>
</g>
<!-- [root] provider.template -->
<g id="node11" class="node">
<title>[root] provider.template</title>
<polygon fill="none" stroke="#000000" points="1283.278,-180 1151.0605,-162 1283.278,-144 1415.4954,-162 1283.278,-180"/>
<text text-anchor="middle" x="1283.278" y="-158.3" font-family="Times,serif" font-size="14.00" fill="#000000">provider.template</text>
</g>
<!-- [root] data.template_file.init&#45;&gt;[root] provider.template -->
<g id="edge25" class="edge">
<title>[root] data.template_file.init&#45;&gt;[root] provider.template</title>
<path fill="none" stroke="#000000" d="M1128.9946,-215.9243C1162.0452,-204.3726 1204.5541,-189.5151 1236.5798,-178.3217"/>
<polygon fill="#000000" stroke="#000000" points="1237.875,-181.5767 1246.1602,-174.9732 1235.5654,-174.9687 1237.875,-181.5767"/>
</g>
<!-- [root] local.virtual_machine_name -->
<g id="node19" class="node">
<title>[root] local.virtual_machine_name</title>
<ellipse fill="none" stroke="#000000" cx="1123.278" cy="-90" rx="169.77" ry="18"/>
<text text-anchor="middle" x="1123.278" y="-86.3" font-family="Times,serif" font-size="14.00" fill="#000000">[root] local.virtual_machine_name</text>
</g>
<!-- [root] data.template_file.init&#45;&gt;[root] local.virtual_machine_name -->
<g id="edge24" class="edge">
<title>[root] data.template_file.init&#45;&gt;[root] local.virtual_machine_name</title>
<path fill="none" stroke="#000000" d="M1087.994,-215.5222C1093.5259,-205.3239 1099.9945,-192.271 1104.278,-180 1111.3174,-159.8343 1116.1875,-136.1733 1119.2335,-118.1738"/>
<polygon fill="#000000" stroke="#000000" points="1122.6893,-118.7279 1120.8188,-108.2995 1115.7778,-117.6182 1122.6893,-118.7279"/>
</g>
<!-- [root] var.admin_username -->
<g id="node20" class="node">
<title>[root] var.admin_username</title>
<ellipse fill="none" stroke="#000000" cx="716.278" cy="-162" rx="135.6761" ry="18"/>
<text text-anchor="middle" x="716.278" y="-158.3" font-family="Times,serif" font-size="14.00" fill="#000000">[root] var.admin_username</text>
</g>
<!-- [root] data.template_file.init&#45;&gt;[root] var.admin_username -->
<g id="edge26" class="edge">
<title>[root] data.template_file.init&#45;&gt;[root] var.admin_username</title>
<path fill="none" stroke="#000000" d="M989.4291,-216.4789C932.3327,-205.0913 858.267,-190.3191 801.6673,-179.0306"/>
<polygon fill="#000000" stroke="#000000" points="802.1601,-175.56 791.6686,-177.0364 800.7909,-182.4248 802.1601,-175.56"/>
</g>
<!-- [root] local.virtual_machine_name&#45;&gt;[root] var.prefix -->
<g id="edge27" class="edge">
<title>[root] local.virtual_machine_name&#45;&gt;[root] var.prefix</title>
<path fill="none" stroke="#000000" d="M1100.3148,-71.8314C1088.7395,-62.6729 1074.5608,-51.4545 1062.1485,-41.6338"/>
<polygon fill="#000000" stroke="#000000" points="1064.306,-38.8778 1054.292,-35.4177 1059.9625,-44.3674 1064.306,-38.8778"/>
</g>
<!-- [root] meta.count&#45;boundary (count boundary fixup) -->
<g id="node21" class="node">
<title>[root] meta.count&#45;boundary (count boundary fixup)</title>
<ellipse fill="none" stroke="#000000" cx="248.278" cy="-450" rx="248.0561" ry="18"/>
<text text-anchor="middle" x="248.278" y="-446.3" font-family="Times,serif" font-size="14.00" fill="#000000">[root] meta.count&#45;boundary (count boundary fixup)</text>
</g>
<!-- [root] meta.count&#45;boundary (count boundary fixup)&#45;&gt;[root] cvp_device.Device&#45;A -->
<g id="edge28" class="edge">
<title>[root] meta.count&#45;boundary (count boundary fixup)&#45;&gt;[root] cvp_device.Device&#45;A</title>
<path fill="none" stroke="#000000" d="M294.7499,-432.2022C320.4283,-422.368 352.5281,-410.0744 379.6627,-399.6824"/>
<polygon fill="#000000" stroke="#000000" points="380.948,-402.9382 389.0348,-396.0931 378.4445,-396.4012 380.948,-402.9382"/>
</g>
<!-- [root] provider.azurerm (close) -->
<g id="node22" class="node">
<title>[root] provider.azurerm (close)</title>
<ellipse fill="none" stroke="#000000" cx="724.278" cy="-378" rx="153.2729" ry="18"/>
<text text-anchor="middle" x="724.278" y="-374.3" font-family="Times,serif" font-size="14.00" fill="#000000">[root] provider.azurerm (close)</text>
</g>
<!-- [root] provider.azurerm (close)&#45;&gt;[root] azurerm_virtual_machine.veos&#45;1 -->
<g id="edge29" class="edge">
<title>[root] provider.azurerm (close)&#45;&gt;[root] azurerm_virtual_machine.veos&#45;1</title>
<path fill="none" stroke="#000000" d="M695.3566,-360.2022C680.2831,-350.9262 661.6542,-339.4623 645.4165,-329.4698"/>
<polygon fill="#000000" stroke="#000000" points="647.0302,-326.3533 636.6793,-324.0931 643.3615,-332.3149 647.0302,-326.3533"/>
</g>
<!-- [root] provider.cvp (close) -->
<g id="node23" class="node">
<title>[root] provider.cvp (close)</title>
<ellipse fill="none" stroke="#000000" cx="646.278" cy="-450" rx="131.077" ry="18"/>
<text text-anchor="middle" x="646.278" y="-446.3" font-family="Times,serif" font-size="14.00" fill="#000000">[root] provider.cvp (close)</text>
</g>
<!-- [root] provider.cvp (close)&#45;&gt;[root] cvp_device.Device&#45;A -->
<g id="edge30" class="edge">
<title>[root] provider.cvp (close)&#45;&gt;[root] cvp_device.Device&#45;A</title>
<path fill="none" stroke="#000000" d="M597.3073,-433.2101C567.8714,-423.1177 530.127,-410.1768 498.5804,-399.3608"/>
<polygon fill="#000000" stroke="#000000" points="499.5997,-396.0104 489.0051,-396.0779 497.3294,-402.632 499.5997,-396.0104"/>
</g>
<!-- [root] provider.template (close) -->
<g id="node24" class="node">
<title>[root] provider.template (close)</title>
<ellipse fill="none" stroke="#000000" cx="1068.278" cy="-378" rx="155.9723" ry="18"/>
<text text-anchor="middle" x="1068.278" y="-374.3" font-family="Times,serif" font-size="14.00" fill="#000000">[root] provider.template (close)</text>
</g>
<!-- [root] provider.template (close)&#45;&gt;[root] data.template_file.init -->
<g id="edge31" class="edge">
<title>[root] provider.template (close)&#45;&gt;[root] data.template_file.init</title>
<path fill="none" stroke="#000000" d="M1069.4178,-359.7623C1070.9529,-335.201 1073.7,-291.2474 1075.5058,-262.3541"/>
<polygon fill="#000000" stroke="#000000" points="1079.0167,-262.2885 1076.1474,-252.0896 1072.0303,-261.8518 1079.0167,-262.2885"/>
</g>
<!-- [root] root -->
<g id="node25" class="node">
<title>[root] root</title>
<ellipse fill="none" stroke="#000000" cx="725.278" cy="-522" rx="58.4896" ry="18"/>
<text text-anchor="middle" x="725.278" y="-518.3" font-family="Times,serif" font-size="14.00" fill="#000000">[root] root</text>
</g>
<!-- [root] root&#45;&gt;[root] meta.count&#45;boundary (count boundary fixup) -->
<g id="edge32" class="edge">
<title>[root] root&#45;&gt;[root] meta.count&#45;boundary (count boundary fixup)</title>
<path fill="none" stroke="#000000" d="M672.4081,-514.0196C598.8892,-502.9224 463.7834,-482.5291 365.77,-467.7347"/>
<polygon fill="#000000" stroke="#000000" points="366.2173,-464.2626 355.8069,-466.2308 365.1725,-471.1842 366.2173,-464.2626"/>
</g>
<!-- [root] root&#45;&gt;[root] provider.azurerm (close) -->
<g id="edge33" class="edge">
<title>[root] root&#45;&gt;[root] provider.azurerm (close)</title>
<path fill="none" stroke="#000000" d="M752.4152,-505.8061C765.2393,-496.522 779.2512,-483.6048 786.278,-468 792.8473,-453.4108 792.9061,-446.5626 786.278,-432 780.9589,-420.3135 771.7228,-410.1725 761.9793,-401.9339"/>
<polygon fill="#000000" stroke="#000000" points="764.142,-399.1821 754.1214,-395.7413 759.8092,-404.68 764.142,-399.1821"/>
</g>
<!-- [root] root&#45;&gt;[root] provider.cvp (close) -->
<g id="edge34" class="edge">
<title>[root] root&#45;&gt;[root] provider.cvp (close)</title>
<path fill="none" stroke="#000000" d="M706.5561,-504.937C696.7162,-495.969 684.4714,-484.8092 673.5933,-474.895"/>
<polygon fill="#000000" stroke="#000000" points="675.7165,-472.0945 665.9679,-467.9453 671.0012,-477.2682 675.7165,-472.0945"/>
</g>
<!-- [root] root&#45;&gt;[root] provider.template (close) -->
<g id="edge35" class="edge">
<title>[root] root&#45;&gt;[root] provider.template (close)</title>
<path fill="none" stroke="#000000" d="M760.0542,-507.4001C820.8088,-481.8938 946.5237,-429.1155 1017.1888,-399.4485"/>
<polygon fill="#000000" stroke="#000000" points="1018.9166,-402.5192 1026.7821,-395.421 1016.2069,-396.0649 1018.9166,-402.5192"/>
</g>
</g>
</svg>
